<svg xmlns="http://www.w3.org/2000/svg" width="19" height="19" viewBox="0 0 19 19">
    <g fill="none" fill-rule="evenodd">
        <path fill="none" d="M15.51 3.49A8.5 8.5 0 1 1 3.49 15.51 8.5 8.5 0 0 1 15.51 3.49"/>
        <path stroke="#696969" stroke-linecap="square" d="M15.51 3.49A8.5 8.5 0 1 1 3.49 15.51 8.5 8.5 0 0 1 15.51 3.49"/>
        <path fill="none" d="M14 10c0 2.75-2.025 5-4.5 5S5 12.75 5 10h9z"/>
        <path stroke="#696969" stroke-linecap="square" d="M14 10c0 2.75-2.025 5-4.5 5S5 12.75 5 10h9z"/>
        <path fill="none" d="M14 8c0-1.1-.675-2-1.5-2S11 6.9 11 8"/>
        <path stroke="#696969" stroke-linecap="square" d="M14 8c0-1.1-.675-2-1.5-2S11 6.9 11 8"/>
        <path fill="none" d="M8 8c0-1.1-.675-2-1.5-2S5 6.9 5 8"/>
        <path stroke="#696969" stroke-linecap="square" d="M8 8c0-1.1-.675-2-1.5-2S5 6.9 5 8"/>
    </g>
</svg>
