<svg xmlns="http://www.w3.org/2000/svg" width="14" height="17" viewBox="0 0 14 17">
    <g fill="none" fill-rule="evenodd">
        <path fill="none" d="M9 14c0 1.133-.867 2-2 2s-2-.867-2-2"/>
        <path stroke="#696969" stroke-linecap="square" d="M9 14c0 1.133-.867 2-2 2s-2-.867-2-2"/>
        <path fill="none" d="M11.667 9.21V5.79C11.667 3.12 9.6 1 7 1 4.4 1 2.333 3.121 2.333 5.79v3.42C2.333 11.948 1 14 1 14h12s-1.333-2.053-1.333-4.79z"/>
        <path stroke="#696969" stroke-linecap="square" d="M11.667 9.21V5.79C11.667 3.12 9.6 1 7 1 4.4 1 2.333 3.121 2.333 5.79v3.42C2.333 11.948 1 14 1 14h12s-1.333-2.053-1.333-4.79z"/>
    </g>
</svg>
