<svg width="16" height="17" xmlns="http://www.w3.org/2000/svg"><g fill="none" fill-rule="evenodd"><path d="M7.3 10c-1.977 0-3.73.399-4.883.746-.85.256-1.417.972-1.417 1.774V15h7" fill="none"/><path d="M7.3 10c-1.977 0-3.73.399-4.883.746-.85.256-1.417.972-1.417 1.774V15h7" stroke="#8190B0"/><path d="M7.5 10C5.567 10 4 7.57 4 5.5v-.75C4 2.68 5.567 1 7.5 1S11 2.68 11 4.75v.75C11 7.57 9.433 10 7.5 10z" fill="none"/><path d="M7.5 10C5.567 10 4 7.57 4 5.5v-.75C4 2.68 5.567 1 7.5 1S11 2.68 11 4.75v.75C11 7.57 9.433 10 7.5 10z" stroke="#8190B0" stroke-linecap="square"/><path d="M13 12v4" fill="none"/><path d="M13 12v4" stroke="#8190B0" stroke-linecap="square"/><path d="M11 14h4" fill="none"/><path d="M11 14h4" stroke="#8190B0" stroke-linecap="square"/></g></svg>