
<svg width="20px" height="19px" viewBox="0 0 20 19" version="1.1" xmlns="http://www.w3.org/2000/svg" xmlns:xlink="http://www.w3.org/1999/xlink">
    <!-- Generator: Sketch 51.2 (57519) - http://www.bohemiancoding.com/sketch -->
    <desc>Created with Sketch.</desc>
    <defs></defs>
    <g id="Page-1" stroke="none" stroke-width="1" fill="none" fill-rule="evenodd">
        <g id="Desktop" transform="translate(-403.000000, -46.000000)">
            <g id="Contacts" transform="translate(-3.000000, 0.000000)">
                <g id="search-bar" transform="translate(396.000000, 34.000000)">
                    <g id="Page-1" transform="translate(11.000000, 13.000000)">
                        <path d="M18,18 L13.2,13.2" id="Fill-1" fill-opacity="0" fill="#000000"></path>
                        <path d="M18,18 L13.2,13.2" id="Stroke-3" stroke="#8190B0" stroke-linecap="square"></path>
                        <path d="M13.1691086,2.25946286 C16.1817257,5.27208 16.1817257,10.1564914 13.1691086,13.1691094 C10.1564914,16.1817257 5.27207829,16.1817257 2.259462,13.1691094 C-0.753154029,10.1564914 -0.753154029,5.27208 2.259462,2.25946286 C5.27207829,-0.753154286 10.1564914,-0.753154286 13.1691086,2.25946286" id="Fill-4" fill-opacity="0" fill="#000000"></path>
                        <path d="M13.1691086,2.259462 C16.1817257,5.27207829 16.1817257,10.1564914 13.1691086,13.1691086 C10.1564914,16.1817257 5.27207829,16.1817257 2.259462,13.1691086 C-0.753154029,10.1564914 -0.753154029,5.27207829 2.259462,2.259462 C5.27207829,-0.753154029 10.1564914,-0.753154029 13.1691086,2.259462" id="Stroke-5" stroke="#8190B0" stroke-linecap="square"></path>
                    </g>
                </g>
            </g>
        </g>
    </g>
</svg>