
<svg width="14px" height="17px" viewBox="0 0 14 17" version="1.1" xmlns="http://www.w3.org/2000/svg" xmlns:xlink="http://www.w3.org/1999/xlink">
    <!-- Generator: Sketch 51.2 (57519) - http://www.bohemiancoding.com/sketch -->
    <desc>Created with Sketch.</desc>
    <defs></defs>
    <g id="Page-1" stroke="none" stroke-width="1" fill="none" fill-rule="evenodd">
        <g id="Desktop" transform="translate(-1364.000000, -48.000000)">
            <g id="Right-Column" transform="translate(1330.000000, 0.000000)">
                <g id="Notifications" transform="translate(20.000000, 36.000000)">
                    <g id="Notice" transform="translate(15.000000, 13.000000)">
                        <path d="M8,13 C8,14.1333333 7.13333333,15 6,15 C4.86666667,15 4,14.1333333 4,13" id="Fill-1" fill-opacity="0" fill="#000000"></path>
                        <path d="M8,13 C8,14.1333333 7.13333333,15 6,15 C4.86666667,15 4,14.1333333 4,13" id="Stroke-3" stroke="#696969" stroke-linecap="square"></path>
                        <path d="M10.6666667,8.21052632 L10.6666667,4.78947368 C10.6666667,2.12105263 8.6,0 6,0 C3.4,0 1.33333333,2.12105263 1.33333333,4.78947368 L1.33333333,8.21052632 C1.33333333,10.9473684 0,13 0,13 L12,13 C12,13 10.6666667,10.9473684 10.6666667,8.21052632 Z" id="Fill-4" fill-opacity="0" fill="#000000"></path>
                        <path d="M10.6666667,8.21052632 L10.6666667,4.78947368 C10.6666667,2.12105263 8.6,0 6,0 C3.4,0 1.33333333,2.12105263 1.33333333,4.78947368 L1.33333333,8.21052632 C1.33333333,10.9473684 0,13 0,13 L12,13 C12,13 10.6666667,10.9473684 10.6666667,8.21052632 Z" id="Stroke-5" stroke="#696969" stroke-linecap="square"></path>
                    </g>
                </g>
            </g>
        </g>
    </g>
</svg>