
<svg width="19px" height="19px" viewBox="0 0 19 19" version="1.1" xmlns="http://www.w3.org/2000/svg" xmlns:xlink="http://www.w3.org/1999/xlink">
    <!-- Generator: Sketch 51.2 (57519) - http://www.bohemiancoding.com/sketch -->
    <desc>Created with Sketch.</desc>
    <defs></defs>
    <g id="Page-1" stroke="none" stroke-width="1" fill="none" fill-rule="evenodd">
        <g id="Desktop" transform="translate(-1200.000000, -1132.000000)">
            <g id="Conversation" transform="translate(768.000000, 0.000000)">
                <g id="Bottom-Bar" transform="translate(0.000000, 1085.000000)">
                    <g id="Emoticons" transform="translate(421.000000, 37.000000)">
                        <g id="Page-1" transform="translate(12.000000, 11.000000)">
                            <path d="M14.5104058,2.48959425 C17.8298647,5.80904552 17.8298647,11.1909502 14.5104058,14.5104076 C11.1909545,17.8298641 5.80904985,17.8298641 2.48959239,14.5104076 C-0.829864131,11.1909502 -0.829864131,5.80904552 2.48959239,2.48959425 C5.80904985,-0.82986475 11.1909545,-0.82986475 14.5104058,2.48959425" id="Fill-1" fill-opacity="0" fill="#000000"></path>
                            <path d="M14.5104058,2.48959239 C17.8298647,5.80904985 17.8298647,11.1909545 14.5104058,14.5104058 C11.1909545,17.8298647 5.80904985,17.8298647 2.48959239,14.5104058 C-0.829864131,11.1909545 -0.829864131,5.80904985 2.48959239,2.48959239 C5.80904985,-0.829864131 11.1909545,-0.829864131 14.5104058,2.48959239" id="Stroke-3" stroke="#696969" stroke-linecap="square"></path>
                            <path d="M13,9 C13,11.75 10.975,14 8.5,14 C6.025,14 4,11.75 4,9 L13,9 Z" id="Fill-4" fill-opacity="0" fill="#000000"></path>
                            <path d="M13,9 C13,11.75 10.975,14 8.5,14 C6.025,14 4,11.75 4,9 L13,9 Z" id="Stroke-5" stroke="#696969" stroke-linecap="square"></path>
                            <path d="M13,7 C13,5.9 12.325,5 11.5,5 C10.675,5 10,5.9 10,7" id="Fill-6" fill-opacity="0" fill="#000000"></path>
                            <path d="M13,7 C13,5.9 12.325,5 11.5,5 C10.675,5 10,5.9 10,7" id="Stroke-7" stroke="#696969" stroke-linecap="square"></path>
                            <path d="M7,7 C7,5.9 6.325,5 5.5,5 C4.675,5 4,5.9 4,7" id="Fill-8" fill-opacity="0" fill="#000000"></path>
                            <path d="M7,7 C7,5.9 6.325,5 5.5,5 C4.675,5 4,5.9 4,7" id="Stroke-9" stroke="#696969" stroke-linecap="square"></path>
                        </g>
                    </g>
                </g>
            </g>
        </g>
    </g>
</svg>