
<svg width="17px" height="17px" viewBox="0 0 17 17" version="1.1" xmlns="http://www.w3.org/2000/svg" xmlns:xlink="http://www.w3.org/1999/xlink">
    <!-- Generator: Sketch 51.2 (57519) - http://www.bohemiancoding.com/sketch -->
    <desc>Created with Sketch.</desc>
    <defs></defs>
    <g id="Page-1" stroke="none" stroke-width="1" fill="none" fill-rule="evenodd">
        <g id="Desktop" transform="translate(-807.000000, -1134.000000)">
            <g id="Conversation" transform="translate(768.000000, 0.000000)">
                <g id="Bottom-Bar" transform="translate(0.000000, 1085.000000)">
                    <g id="Attachment" transform="translate(27.000000, 37.000000)">
                        <g id="Page-1" transform="translate(13.000000, 13.000000)">
                            <path d="M7,2.87414188 L8.83066362,1.04347826 C10.221968,-0.347826087 12.5652174,-0.347826087 13.9565217,1.04347826 L13.9565217,1.04347826 C15.3478261,2.43478261 15.3478261,4.77803204 13.9565217,6.16933638 L12.1258581,8" id="Fill-1" fill-opacity="0" fill="#000000"></path>
                            <path d="M7,2.87414188 L8.83066362,1.04347826 C10.221968,-0.347826087 12.5652174,-0.347826087 13.9565217,1.04347826 L13.9565217,1.04347826 C15.3478261,2.43478261 15.3478261,4.77803204 13.9565217,6.16933638 L12.1258581,8" id="Stroke-3" stroke="#696969" stroke-linecap="square"></path>
                            <path d="M8,12.1258581 L6.16933638,13.9565217 C4.77803204,15.3478261 2.43478261,15.3478261 1.04347826,13.9565217 L1.04347826,13.9565217 C-0.347826087,12.5652174 -0.347826087,10.221968 1.04347826,8.83066362 L2.87414188,7" id="Fill-4" fill-opacity="0" fill="#000000"></path>
                            <path d="M8,12.1258581 L6.16933638,13.9565217 C4.77803204,15.3478261 2.43478261,15.3478261 1.04347826,13.9565217 L1.04347826,13.9565217 C-0.347826087,12.5652174 -0.347826087,10.221968 1.04347826,8.83066362 L2.87414188,7" id="Stroke-5" stroke="#696969" stroke-linecap="square"></path>
                            <path d="M5,10 L10,5" id="Fill-6" fill-opacity="0" fill="#000000"></path>
                            <path d="M5,10 L10,5" id="Stroke-7" stroke="#696969" stroke-linecap="square"></path>
                        </g>
                    </g>
                </g>
            </g>
        </g>
    </g>
</svg>